<svg xmlns="http://www.w3.org/2000/svg" width="3000" height="3000" viewBox="0 0 3000 3000">
    <g id="SVG">
        <path d="M2899.4,1817c-12.2,3.9-16.1,4.9-28.2,9.4-7.3,2.7-14.5,6-21.9,8.6-3.9,1.3-4.6,3.6-4.5,7.1s.3,4.9-.6,6.7c-1.8,3.6-4.7,6.9-9.2,6.6s-6.5-3.4-7.7-7.1-2.4-6-5.5-7.2c-6.6-2.7-9.5-8.1-10.5-14.5-.6-3.7-2.7-4.8-5.7-5.7l-23.9-6.8a23.7,23.7,0,0,1-8.9-4.3c-1.6-1.5-3.5-3.2-6-3.2-20.3.6-35.1-11.4-50.5-22.2-2.8-2-6.2-3.3-9.2-5.2-8.5-5.5-14-13.8-18.6-22.4-2.1-3.8-.9-9.4-1.2-14.8-5.5,3.8-11.7,1.3-17,2.4-8.7,1.9-17.4.3-26.3,2.9-6.7,1.9-13.6,4.4-20.5,5.9s-10.1,2.1-12.9,8-8.3,6.6-14.3,4.2-14.7-5.1-16.2-14.6c-.5-3.1-3-3.9-6.2-1.3-8.5,7-21.5,6.9-30.6.3s-19.5-7.4-29.8-1.7c-7.1,3.8-19.4,2-24.3-3.3s-3.5-10.4-2.6-15.5.6-10.4.9-15.6c.2-3.2-.4-5.9-3.7-7.2-10.6-4.3-13.9-14.5-18.8-23.3a17.1,17.1,0,0,0-1.7-3.3c-1.1-1.1-2.1-3.2-4-2.1s-.9,2.7-.6,4.1c1.8,9.6,2.6,19.4,7.1,28.3s-2.5,14.3-4.7,21.2c-3.1,10.1-10.9,16.4-18.8,22.7-3.9,3.2-8.7,2.8-13.1,3.2a108.2,108.2,0,0,0-16,2.3c-6.8,1.7-13.3,3.7-20.8.8-5.2-2-10.5,3-15.6,4.8s-12.7,2.2-19.1,2.3c-3.5,0-6.7,0-8.3,3.9-.2.4-.6.6-.9.9s-24.5,7.4-25.8,6.7c-5.2-2.8-10.3.1-15.4,0-2.2,0-2,1.3-1.1,3,3.9,7.9,3.6,10.3-4.4,14.3-12.1,6-16.7,17.6-20.2,28.8A54.5,54.5,0,0,1,2271,1845c-3.3,3.9-6.6,3.5-10.4.8-6.7-4.8-9.2-4.1-12,3.4-1.9,4.9-5.1,6.4-10.1,6.6-7.4.2-15.1-2.1-22.1,2.2-1.7,1-3.6,1.6-3.1,4s2.6,1.8,4.6,1.6c14.1-1.1,23.6,5.8,26.6,19.4.6,2.9,3,3.9,4.4,5.9s3.8,3.7,2.9,5.9c-4.2,11.3-3.4,25.2-16.2,32.3-3.4,1.9-5.2,4.9-1.3,8.5,1.7,1.5,1.2,3.2.1,5.1-5.2,9.2-12.1,15.8-23.2,16.9-2.7.2-3,1-1.8,3.5s5,4.4,8.2,4.9,7.2,2.8,7.7,6.9-.6,7.8-4.6,9.5-2.2,2.2-1,4.2c3.2,5.3,6,11,9.3,16.3s9,6.8,16.6,3c9.7-4.8,12.8-3.2,19.6,6,3,4,2.1,7.8-2.2,10-6.8,3.4-12.6,7.8-16.4,14.6-1.9,3.3-5.4,4.1-8.8,1.7a18.3,18.3,0,0,0-12-3.4c-5.8.1-11-5.6-12-10.5-1.6-7.6-6.9-11.4-11.7-17.7.2,5.7-1.8,9.1-6.1,11.2-2.1,1-2,3-1.8,4.9.3,4.1-.9,7.9-2,11.7a8.8,8.8,0,0,1-14.4,4.3,23.9,23.9,0,0,1-7.4-10c-.6-1.6.7-5.1-3.1-3.4s-5.2,2.3-3.7,6a41.7,41.7,0,0,0,2.4,5.8c2.6,4.6.6,7.7-3.5,9.6a70.9,70.9,0,0,1-11.2,4c-7.2,2-16.8-3.9-18.6-11.3-.4-1.8.7-3.1,1.2-4.7,1.6-5.8,3.4-12.8-.7-17.3s-10-12.3-19.7-8.6c-4.1,1.5-9,1.5-13.6,1.6s-5.3,1.9-7.3,4.1c-4,4.3-8.3,6.5-13.9,3.1-1.9-1.2-3.5-.7-5.1.8-8.3,7.3-18.1,7.4-27.8,4.6-5.7-1.7-9.9,2.2-15,1.8-1.9-.1-1.6,2.7-1.5,4.3.8,8.8-1.5,17.5-1.3,26.3.1,4.2-2.1,6.5-5.8,7.9l-15.1,5.9c-2,.7-3.7,1.9-2.9,4,1.7,4.5-.6,7.7-3,10.8s-1.5,3.6-.5,6.1c2.1,5.4,3.2,11.2,5.4,16.6s-.7,7.8-5,9.3c-6.4,2.3-10.9,5.3-15.2,11.8a40.1,40.1,0,0,0-7,22.2c-.1.5,0,1-.2,1.3-4.4,4.8-3.7,7.6,3,9,2.4.5,2.3,3.7,2.3,6-.1,15.5,7.5,27.7,16.8,39,4.2,5,8.7,9.1,9.9,16.1s6.7,9.4,10.8,13.6c7.1,7.1,6.4,14.6-2.8,18.8-4.2,1.9-4.8,4.5-6,8.2s-2,11.2-8,14.1c-3.1,1.5-5.9,1.7-8.9-.2-6.1-4-8.6-3.5-11.7,2.7-1.7,3.2-3.8,4.1-7.1,3.8s-4.6.8-6.3,4.1c-3.6,6.8-12.4,10.5-12.7,19.7-9.3,6.1-19.7,13.2-30.3,11.7-8.3-1.2-17.3-4.5-25.6-7.7-3.4-1.4-5.4-5.8-9.5-6.7-1.9,14.3-15.3,19.9-27.3,12.1-3.4-2.1-8-2.3-12.1-3.2-6.2-1.4-9.4-5-9-11.6a12.7,12.7,0,0,0-.5-4.3c-2.1-7.1.5-11.9,7.6-12.7,4.5-.6,4.2-1.6,2.7-5.5a18.8,18.8,0,0,0-7.6-9.9c-7-4.8-7.9-14.6-2.9-22.4,2.9-4.5,2.1-6.5-3-7.8-2.2-.6-4.9-.9-6.4-2.3-4.3-3.9-8.9-3.1-13.5-1.6s-6.3,1.5-8.6-1.4-3.7-6.6-2.5-10.5a6.4,6.4,0,0,1,1.9-3.2c10.8-7.1,7.2-18.1,7.6-28a6.2,6.2,0,0,0-.6-3c-4.9-10-4.4-15.1,3.8-22.7s12.1-14.9,20.9-19.6c1.8-.9,1.1-3,1.2-4.6.1-7.8,3.3-13.5,10.8-16.6,3.2-1.4,5.3-3.4,5.8-7.4s2.8-6.7,7-8c5.9-1.8,11.5-4.5,17.4-6.4,3.2-1,6.7-2.8,9.8-1.7,10.5,3.9,16.6-3.4,23.8-8.5a19.7,19.7,0,0,0,7.9-11.3c1.3-5.1,4.5-7.6,8.5-10.2,7.3-4.6,12.1-10.7,11-20.1-.3-2-.5-3.7-2.4-4.8-4.7-2.7-5.1-8.1-6.8-12.3s3.7-5.8,5.7-8.8c-8-4.1-12.8,1.9-17.6,5.8-7.9,6.4-11.6,6.2-16.7-2.8s-10-18.3-15-27.4c-1.4-2.7-3.6-4.2-6.3-5.7-9.3-5.1-19.2-9.2-26.4-17.7a54.2,54.2,0,0,0-28.3-17.3c-6.2-1.6-5.9-7.1-6.8-11.5a86.6,86.6,0,0,0-2.4-11c-1-3.2-1.9-7.5,1.5-9.9s4.1-6.1.9-9.5c-4.5-4.9-2-11.3-3.8-16.8-.9-2.4-1.2-4.6-3.7-6.1s-5.2-4.9-3.6-9c1-2.6-.7-4.1-2.3-5.2-5.3-3.9-5.1-9.2-4.1-14.8.5-2.4,1.5-4.8,1.8-7.3s1.2-6.4-4.4-7.5c-7.9-1.7-12.8-14.8-8.8-22.5,6.2-11.9,10.2-24.5,13.2-37.5a20.2,20.2,0,0,0-3.2-16.7c-4-5.6-8.8-10.6-13.3-15.8-1.4-1.6-2.8-1.3-4.4,0l-4.9,3.8c-3,2.1-5.9,5.7-9.9,3.5s-8.2-5.4-8.2-11.5c.2-15.1.8-30,9.6-43.2,2.2-3.2,2.4-6.5-1.8-8.8-6.3-3.4-5.5-10.5-7.3-15.9s-3.3-8.8-7-12.2c-8.9-8.6-12.4-18.2-6.4-30.3a62.7,62.7,0,0,0,5.1-16.6c1-5.1,1.4-10.5-2.5-15a9.8,9.8,0,0,1-2.2-7.6c.7-9.4.4-18.8,3.3-27.9.4-1.4.7-2.9-.3-4.2-5.7-7.4-3.6-14.8.2-22.1s6.3-17.4,13.6-23.6c3-2.5,5.4-4.8,3.5-9.3s1.9-5.2,3.4-7.6,3.5-3.9,2.1-6.1-4.2-1-6.3-.3c-4.9,1.5-9.5,3.4-15,1.4s-9.4-6-8-14c.5-3.1.6-6.1-2.2-7-6.5-2.1-11.1-9.1-19.4-6.7-4.1,1.2-9.3,1.4-11.7-3.6a10.7,10.7,0,0,1,2.1-12.7,27.2,27.2,0,0,0,4.8-7.3c1.9-3.7,4.8-7,1.1-11.8a7.9,7.9,0,0,1,1.2-11.4c4.4-3.5,9.4-2.7,14.1-.4a12.7,12.7,0,0,1,4.7,4.2c4.7,7.7,12,5.8,19,5.5,1.7-.1,2.3-1.5,3.3-2.6,6.4-6.7,15.7-6.8,21.9-.2,2.7,2.7,11.8,1.7,13.7-1.6s3-5,8.9-6.1a34.3,34.3,0,0,1-.5-18.8c1.2-4.9.3-8.2-4.6-10.7s-9.5-4.5-11.5-10.1-1.9-7.7,2.6-10.3,3.6-3.8-.4-5.5-8.8-4.2-10.8-9c-.8-1.7-2.5-3.8-2-5.1,3.7-10.6-5.7-9.7-10.3-10.4-9.9-1.5-14.5-8.7-19.4-15.4-2.6-3.6-1.7-8.5.3-12.6.7-1.6,1.6-3.5-.7-4.2s-2,1.6-2.5,2.8c-1.6,4.1-4.5,5.6-8.9,5.3-6.9-.4-13.6.6-20.1-4.6s-7.3-13-4.8-20.5c1.6-4.9,2.7-7.3-4.2-8-15.3-1.5-23.6-11.7-28.2-25.5-1.3-3.7-6.2-6.3-1.7-11.9-5.2,1.2-5.7,4.2-7.1,6.6-2.4,4-3,9.6-8.6,10.9-9,2-15.3-5.4-12.1-14.7,3.9-11.2,8.5-22.1,12.9-33.1,2.9-7.3,5.8-14.7,9.2-21.8,1.8-3.8,3.7-8.5,9.7-5.4,1.4.8,2.7.3,2.6-1.3a13.1,13.1,0,0,1,3.4-9.8c1-1.1-3.8-11-5.4-11.3s-2.2,1.1-2.9,2.5c-6.2,12.3-12.6,24.4-18.4,36.8-1.4,3-3.8,5-5.4,7.6-5,7.8-11.6,14.5-13,24.5s-9.1,18-19.3,21.9c-6.5,2.5-8.3,7.8-9.3,13.7-.5,3.3.3,5.5,4,7.4a34.5,34.5,0,0,1,16.7,19.6c1.8,5.4-.9,9.6-6.7,10-2.3.2-4.6-.1-6.9.1s-7.5.8-7.3,6.3c.1,3.8-3.3,5.2-6.3,6.1s-4.7,2.4-5,6.1c-.5,5.5-5.9,7.8-9.2,11.4s-7.4,6.2.2,10c4.8,2.4,3.8,8,1.4,11.7-5,7.6-8.9,15.1-7.5,24.5.5,2.8-1.5,4.5-4.1,5.6-9.4,4-19,1-24.5-8.2-3.6,4-7.7,6.4-13.2,5.8-3.5-.3-3.3,1.9-1.9,4a12.4,12.4,0,0,0,3.8,4.1c6.5,3.9,8.8,9.1,6.4,16.5-.8,2.4-.3,4.3,2.5,5.5,5.9,2.5,7.7,7.2,5.1,13a28.3,28.3,0,0,1-6.7,9.1c-2.4,2.3-4.9,3.5-8.4,1.6s-8-2.1-11.8,1.5-8.4,6.2-12.3,9.6-7.4,3.5-11,1.5-8.4-2.3-12.8-2.2-7.2-1.8-7.9-6.3c-.4-2.6-1.6-5.2-4-5.9s-4,2.3-5.4,4.3c-4.1,5.8-10.4,8.2-16.6,10.7a32.7,32.7,0,0,0-11,7c-5.3,5.3-8.5,6-13.9.8s-9.1-3.5-13.8.5c-8.1,7-10.9,6.6-21.2-2-5.6-4.7-6.4-11.2-2.1-18.5,1.6-2.7,3.5-5.2,5.1-7.9,3.1-5.1,1.2-9-4.5-9.2-3.5,0-8,.9-9-3.6s-2-10.4,3.2-14.4a9.7,9.7,0,0,0-.1-15.3c-3.1-2.6-8.3-3.9-7.2-9.2s4.2-10.9,10.1-13.5c1.7-.7,3.3-1.1,3.6-3.6.8-5.7-.3-6.5-5.9-6.1a15.9,15.9,0,0,0-10.9,4.8c-3.2,3.1-6.9,2.5-10.1-.6-1.5-1.4-1.9-3.2-2.6-4.9-3.5-9.8-3.5-9.8-10.6-2.4-1.4,1.5-2.8,3.6-5.1,3.2-6.8-1-11.9,3.4-17.8,5.2-1.7.5-2.1,1.6-2.9,2.8a46.3,46.3,0,0,1-5.7,7.5c-2.8,2.8-6.7,1.3-9.9,2s.1,6.6-3.7,8.9-13.4.9-16.1-4.1c-1.6-3-2.8-3.2-5.7-2.2s-3.9,2.7-3.8,5.6,2.2,3.4,4.6,3.5c4.2.2,5.8,3.3,6.5,6.7a123.6,123.6,0,0,1,1.5,12.4c.4,5.7,0,10.4-7,12.8-3.8,1.3-2.4,6.1-.2,9.1s3.4,4,3.5,7.1c.2,7.5-1.4,10.3-8.9,10.7-5.6.4-6.8,2.9-6.3,7.6a63.3,63.3,0,0,0,1.2,7.4c2,8.9-1.5,15.1-10.4,18-.8.3-1.8.4-2.2,1-4.6,5.6-9.6,7.2-15.6,2-1.3-1-2.8-.2-3.9.9l-5,4.9c-7.1,7-10.2,6.8-15.5-1.4-1-1.7-2-2.8-3.8-1.9s-1.5,2.8-.8,4.3,2.2,3.6,3.2,5.4c2.7,5.4,1.8,15.6-2.5,19.7s-2.5,4.8-.8,7.5,2.6,4.3,3.8,6.5c4.3,7.3,1.2,12.5-7.4,12.8a36.8,36.8,0,0,0-5.6.6c-3.7.8-5,3.4-6.8,6.9-5.1,9.5-2.2,22.3-12.3,29.8-2.3,1.7-4,3.5-7.1,2.1a5.7,5.7,0,0,0-5.5.3c-3.6,2.3-6.9,2-9.6-1.1s-1.5-6.5-.6-10.1c2.6-11,7.1-21.6,6.6-33.3-.2-4.5-.6-8.6-2.8-12.7-3.5-6.8,1.5-12.8,2.8-19.1.4-1.8,3.8-3.4,1.6-5.3s-2.9,1.7-4.5,2.4c-4.1,1.6-8,3.3-8.8,8.6-.2,1-2.5,2.3-4,2.6-3.6.6-4.6,2.3-4.7,5.9,0,5.5-3.8,7.6-8.9,7.2s-6.7.4-5,5.9-.9,7.3-6,8.3c-6.9,1.4-9,8-10.7,14.7s-1,16-7.8,21.6a6.8,6.8,0,0,1-3.3,1.8c-8.9.6-17,4.6-25.6,6.4-4.5,1-6.1-3.7-8.8-6.1s-2.3-5.4-1-8.1c3.9-9,7.9-17.9,12.3-26.6,2.5-4.7,1.8-9.8,2.9-14.7,1.8-7.9,9-12.4,11.5-19.7s7.7-13.7,13.1-19.6c2-2.2,1.3-14.1-.9-15.8s-2.9.2-3.8,1.6c-4.1,6.1-8.1,12.1-12.3,18.1-1.4,2.1-2.9,4.3-5.7,4.5-4.4.2-7.7,1.5-9.1,6.1a3.3,3.3,0,0,1-2.3,1.9c-6.4.3-11.1,4.3-16.2,7.2-3,1.7-6.1,1.8-8.5-1.3s-6.4-2.6-9.9-2.4-7.2-.8-9-4.3-4.4-3.8-7.4-3.3c-6.8,1-11.8-1.9-15.9-7-.9-1.1-1.4-3.5-3.7-2.2a4.2,4.2,0,0,0-2.5,4.1c.1,3.4,0,6.9-3.4,8.8-5.3,2.9-10.6,6-16.9,6.2-2.8.1-4.7-2-4.8-4.8a47.7,47.7,0,0,1,.3-10.7c1.5-8.5-1-13.6-9.2-17.3-6.5-2.9-13-5.8-15.5-13.4-1.2-3.6-4.2-4.1-7.6-4.1-9.8,0-18.7-8.3-19.5-17.8a4.9,4.9,0,0,1,.1-1.2c.4-1.9,3.8-4,1-5.2s-2.9,2.7-3.8,4.6c-2.9,6.3-7.6,7.8-13,3.6s-10.8-7.6-17.4-7.5c-8.1.2-10.3-5.4-12.2-11.1-.8-2.8-1.4-4.2-4.6-4.5-4.9-.5-7.9-2.9-8.5-8.8s-.2-12.4-5-17.7c-2.5-2.8-1.8-7.4,1.2-10.4,5.7-5.5,6.2-9.9-.7-15.4-3.8-3.1-5.5-8.7-8.5-13s-13.2-7.5-17.7-4.3c-8.9,6.4-18.8,10.8-28.6,15.2s-15,14.7-21.1,23.3a81.2,81.2,0,0,0-6.5,10.6c-1.9,3.6-5,5.1-8.3,7.1-4.8,3-10.9,5.5-11.8,12.7a6.3,6.3,0,0,1-6.4,5.8c-6,0-7.6,3.1-7.2,8.4s-2.1,9.3-8.3,9.3a4.4,4.4,0,0,0-4.2,2.3,12.9,12.9,0,0,1-10,6.8c-2,.2-3,2-4,3.6s-3.2,4.9-5.8,5.7c-4.5,1.3-4.2,3.6-2.4,6.9,3.1,5.6,1.9,10.9-1.2,16.1-2.2,3.6-4.4,7.1-6.5,10.7-3.3,5.4-6.9,6.2-11.9,2.5-3.5-2.7-6.7-5.8-11.5-2-1,.8-3.7.7-4.8-.2-4.7-3.6-8.1-.5-11.9,1.8s-10.1,6.7-15.7,8.9-9.6-1.6-13.9-3.3-10.3-3.3-15.3-5.3c-13.6-5.3-22.3-19.9-19.3-34.1,1.7-7.8.6-14-5.7-20.2-22.4-22.1-43.1-45.7-64.6-68.5-13.2-14.1-24.1-30.4-35.7-45.9-3.8-5.1-7.8-8.8-14.5-9.6-11.6-1.3-22.9-3.8-34.6-5-18.3-1.7-35.7-7.8-52.3-15.7-9.7-4.6-20.3-7.3-29.9-12.5-1.3-.7-3.3-.2-4.9-.3-7.1-.4-14.2.5-21.3-1.1-5.3-1.1-9.7,2-13.7,5.2s-16.2,4.3-20.6,0c-7.2-7.2-14.6-14-23.2-19.6-10.8-6.9-18-16.7-18.2-30.3,0-2.9-1.9-3.4-4.2-3.3-16.5.7-32.9-3.5-49.4-.1-5.7,1.2-11.2-1.2-16.9-1.1v-12.6h71.8c8.8,0,13.2,3.7,12.3,12.6-1.1,11.9,5.4,19.2,13.2,26.1a6.2,6.2,0,0,0,2.8,1.4c6,.5,9.5,4.3,12.6,9.1,5.9,9,7.9,9.3,16.8,3.5,2.3-1.5,5-3.1,7.5-3.1,16.5.1,33.1-3.1,49.2,5.3,13,6.8,27.1,11.6,40.9,16.6s29,7,44,8.1c10.4.8,20.8,3.8,31,6.4,3.6.9,6,4.5,8.2,7.5,11.2,15.1,23.8,29.1,34.3,44.7,5.6,8.2,13.5,14.8,20.5,22.1,17.8,18.5,34.4,38.3,53.2,56a14.6,14.6,0,0,1,4.7,12.4c-.3,6-.2,12.2,0,18.2.1,9.4,4,14,13.1,16.6,2.5.7,5.1,1.7,7.6,2.6,6.8,2.6,13.4,4.3,20.5-1.3s13.2-7.8,21.3-7.2c2,.1,3-1.4,4-2.6,3.9-4.7,7.2-3.6,11,.4,1.5,1.6,2,6.6,5.5,3.9a8.5,8.5,0,0,0,2.9-9.6c-.7-2-1.2-4-1.9-5.9-2.2-5.9-.1-11.6,5.2-14.5a122.2,122.2,0,0,0,27.6-21.9c3.1-3.3,2.9-9.1,4.9-13.6s5.5-7.4,9.4-8.2,7.3-3.8,10.8-5.9c12.6-7.8,21.6-18.9,28.1-32.1,5.2-10.6,15.4-14,24.6-19.2,7-4,14.9-6.5,21.4-11.4,2.1-1.6,4.4-1.2,6.7-1.2,3.9-.1,8,.6,11.9-.1,9.7-1.8,14.6,3.7,18.8,11,2.4,4,3.3,9.3,10.8,8.6,4.5-.4,6.3,5.6,4.9,9.9-2.3,6.4.9,13.6-4.2,19.9-1.8,2.1.9,7.6.5,11.4-.5,5.5,3.7,5.9,6.9,7.5a12.2,12.2,0,0,1,6.4,9.5c.5,7.7,6.6,7.1,10.9,9,6.5,2.9,12.7,3.7,16-5.1.8-2.3,3.7-2.4,6.1-2.4a138.3,138.3,0,0,0,14.4,0c4.6-.4,6.5,2.5,8.1,5.6s0,6.1-2.6,8.3l-.9.9c-2.6,2.7-6.1,5.6-4.1,9.6a10.1,10.1,0,0,0,10.9,5.8c7.3-1.2,11.1,2.4,13.4,8.4,1.6,4.4,4.6,6.8,9,7.9,7.9,2.1,11.2,9.7,16.5,14.8,1.1,1.1,1.6,3.5,3.8,2.4s.9-2.8.6-4.4c-1.2-7.2,7.2-14.7,14-11.9,4.5,1.8,9.2,3.9,13,7.4s5.3,5.9,2.4,10.3-.5,4.4,2.5,4.1c6.4-.6,12,.3,15.8,6.2,1,1.6,2.8,1.5,4.6.8s4.8-1.3,6.7,0c5.3,3.7,9.6.3,12.9-2.5a50.2,50.2,0,0,1,12-7.5c9.8-4.6,14.1-13.7,17.1-23,1.4-4.3,3.1-7.6,6.9-8.8s8.1-.7,11.4,3.1c8.1,9.3,12,19.8,10.9,32.1-.4,4.8-4,7.7-6.9,10.8s-5.9,6.1-7.2,10.1a39.7,39.7,0,0,1-9.8,16.5c-2.2,2.2-2.6,5.1-2.9,8.1-.7,8.7-4.8,16.2-8.1,24-.5,1.3-2.5,3.2.1,4s2.1-1.5,2.1-3,.7-3.6,2.2-4.2c5.2-2.2,5.8-8.3,9.9-11.4a3.8,3.8,0,0,0,1.3-4.5c-1.9-5.9,1.2-8.7,6.5-9.7s6.5-2.3,3.6-7.4,1.1-10.4,8-10.8c3.8-.2,5.3-1.3,5.1-5.1s2.8-6.5,7.3-6.4,8.3,1,8.2-5.4c0-1.5,1.8-3.1,3.5-3.1,5,0,8-2.7,10.6-6.6s4.1-3.7,8-2.2c6.2,2.4,12.9,3.1,16.3,10.2,2.3,4.8,3.6,9.4-.6,13.7s-4.6,12-3.7,18.8a74.8,74.8,0,0,1-2.2,32.9c-.7,2.4-1.5,4.8-.4,7.3.5.9,1.5.5,2.2,0,2.5-1.6,2.4-4.2,2.2-6.8s.2-5.7,2.6-8,2.5-5.6,2.6-8.8c.2-9.5,2.2-11.9,11.4-13,3.9-.4,3.9-1.7,2.2-4.8-5.5-10.2-5-13,3.9-20.6,1.4-1.2,1.8-2.8.9-3.8s-2-6.5-6.1-7.4c-8.1-1.7-16.9-14.3-15.9-22.2.8-6.2,9.7-9.4,15.7-6.6,8.6,4,17.7,6.7,27.4,5.7,2.6-.2,1.8-2.4,2.3-3.8,3.2-8,9.7-11.3,16.2-8,2.5,1.3,4.4,3,4.9,6.1.2,1.6-.7,5.1,1.9,4s7.2-.3,7-5.5-2.5-10.6-4.5-15.6c-2.7-6.9.1-13.4,7.3-14.2,4.1-.5,5-2.1,4.7-5.6a23.8,23.8,0,0,1,6.9-20c3.7-3.8,2.5-6.6-2.7-7.4a7.4,7.4,0,0,1-6.6-5.7c-1.6-5.7-1.6-11.6-1.4-17.5,0-1.7.4-3.5,1.9-4.4,7.5-4.4,14.6-10.4,24.1-8.6,4,.8,4-.8,4.3-3.7.4-5.9,4.2-8.5,9.3-5.9,3.3,1.6,4.8,2.1,6.6-1.8s5.5-4.6,9.7-3.6c6.2,1.4,17.8-3.8,21.5-8.7s6.1-6.4,11.8-4.6,11,2.5,15.2,8.2,9.8,1.6,14.2-.3c9.9-4.4,17.3,0,17.3,10.9,0,4.6-.2,9.2.1,13.8s-1,8.8-6.1,10.2c-2.8.8-2.7,1.9-1.1,4,5.2,6.7,6.1,14.8,7,22.8.3,3.4,0,6.8,3.9,8.4.2,0,.3.2.5.4,2.4,2.3,5.5,21.9,3.8,24.8a5.9,5.9,0,0,1-3.9,2.9c-2.4.6-3.6,2.6-4.7,4.7s-1,3.3.6,4.5,3.2.6,4.5-.6l6.5-6c4.1-3.5,8.3-3.5,12.4.2s8.4,5.1,13.2.5c1.8-1.8,4.7-2.7,7.2-3.6,6.3-2.3,11.7-5.7,15.1-11.6,5.9-10.3,21.5-5.9,26.2,2.5,3.5,6.3,13.7,8.4,19.5,4.2s8.9-7,13.5-10.2c2.2-1.6,2.6-2.6.8-5-3.4-4.3-2.7-8.5,1.8-11.8s2.7-4.3.5-7.3c-4.8-6.7-11.1-12.8-10.5-22.1a11,11,0,0,1,16.9-8.9c2.9,1.8,4.9,1.1,7.3-.9,9-7.6,18.3-5.5,24.2,5.4-.3-7.2,2.5-13.2,6.3-18.9,1.4-2.2-1.5-3.8-3.1-4.8-3.3-2.1-5.4-5.1-7.8-8s-3.2-5.8-1.6-8.6,4.1-6.3,8.3-5.7,8.1-2.3,11.1-5.7c1.2-1.3,1.9-3.2,1-4.6-4-6.1,1-8.6,4.8-10.4a11.2,11.2,0,0,0,5.6-5.1c3.1-6,7.8-9.1,14.8-8.3a27.8,27.8,0,0,0,4.8-.2c-5.4-9.5-14.4-8.1-22.3-8.4-5.6-.2-9.2-2.3-11.2-7.3-2.7-6.6,2-14.3,9.2-14.1,4.8.2,6.9-1.4,8.6-5.7,3.3-8.2,8.9-14.2,17.8-17.2s10.2-10,10.8-17.5a14.4,14.4,0,0,1,3.4-8.5c13.4-15.6,21.5-34.3,30.1-52.5,4.7-9.9,10.4-18.5,19.3-24.7a16,16,0,0,0,6.6-10.8c1.2-6.3,4.8-11,8.9-15.5a6.9,6.9,0,0,1,4.3-2.4c8.1-1.1,10.5,6.5,15.3,10.3s1.2,6,0,8.7c-3.6,7.8-7.5,15.4-11.4,22.9a11.2,11.2,0,0,1-7.3,5.6c-3.5.9-3.8,2.8-2.1,5.6,3.7,5.8,3,11.8,1,17.9-1.3,3.7,3.2,10.6,8.5,12.9,8.3,3.7,10.1,6.4,9.2,14.8-.6,5.2-3.7,8-8.5,6.1-8.1-3-17.2-3.5-23.7-10.4-2.2-2.4-4.5-2.3-5.8,1.8s-4.3,10.4-6.4,15.6-1.5,6.8,3.8,6.3,8.7,1.8,12.4,3.5,8.3,6.6,6.1,12.9-1.5,11.6,2.9,16.8,10.4,3.8,15.7,4.4c11.1,1.3,15.6,8.6,12,19.3-1.3,3.7-3.8,8.2-.4,12.3,1.6,1.9,3.6,3.1,6.1,2.4s2.1-3.2,2.2-5.1c.3-8.3,11.3-20.3,19.2-20.9,9.6-.7,15.9,7,12.6,16.3-1.7,4.7-3,8.3.6,12.9,2.5,3.1,2.6,7.5-1.4,10.6s-2.6,5.1,0,6.9,8.2,5.7,13.4,3.5,8.9-2.6,12.8,1.2,7,11.4,4,16.3-1.6,6,3,8.1,10.1,4.7,16.1.1c3.5-2.6,7.7.7,8.6,4.6s2.3,4.6,5.1,6.1c5.8,3.1,6.8,7.9,1.4,11.8-11.5,8.6-11.4,20.4-11.1,32.6,0,.9-.1,2.1.4,2.4,6.7,5.2,3.6,12.1,3.4,18.5s-4.1,10-10.2,8.5c-4-.9-6.1,0-7.6,3.3s-4.3,4.7-8,4.8a36.1,36.1,0,0,1-21-7.3c-2.3-1.8-4-1.6-4.6,1.2-1.3,6-4.9,6.5-9.9,5.1-2.7-.7-5.4-.8-7.7,1.3-4.1,3.6-8,2.8-11.5-1l-2.3-2.2c-4.6-4.5-4.9-4.4-6.9,1.7-1.5,4.4-3.5,6.6,2.9,10.5s16.8,6.5,20.8,15.7c1.4,3.1,3.7,5.5,2.3,9.3s.8,4.1,3.3,2.5c8.4-5.4,16.1-1.4,23.7,1.8a6.2,6.2,0,0,1,3.7,7.8c-.7,2.4-1.7,4.7-2.3,7.1-1.3,5.2-5.8,9.7-2.8,16.1,1.6,3.2.2,7-4.3,8.4a16.2,16.2,0,0,0-10.5,9.8c-1.9,4.7-4.4,9-6.6,13.5-1.1,2.2-1.9,5.1-.7,6.6,6.4,7.8.7,15.8.3,23.4-.4,5.8.6,11.8-1.6,17.4-.5,1.5.9,2.7,1.8,3.9,6.1,8.4,5.4,16.9,1.5,26a115.3,115.3,0,0,0-5.7,19,11.6,11.6,0,0,0,3.7,12,35.8,35.8,0,0,1,12.4,21.7c.6,3.8,2.8,6.5,6.7,8.3,8.1,3.8,8.9,7,4.5,14.7-2.8,4.9-5.5,9.8-8.5,14.6s-2.6,13.3-2.7,20.1c-.1,1.1.2,2.2,1.4,2.5s2.2-.8,2.8-1.9c1.6-2.7,3.4-5.3,4.7-8.1,2.3-4.8,6.2-5.5,10.5-4.4s6.1,4.8,5.5,8.7c-1.4,9.2,3.7,14.7,9.1,21.2,7.1,8.7,11.6,18.4,8.3,31.4s-7,26-12.5,38.4c-1.1,2.6-2,5.4,2.6,5.8s7.7-1.6,10.1,2.8,1.7,9.8.7,14.7c-.6,3.3-1.7,6.4-1.8,9.8s1.8,7.9,4.1,11.8c5.4,9,12.1,17.9,11.1,29.4-.4,5.3,1,6.9,6.5,4.1,7.3-3.8,17,1.7,18.5,9.9.8,4-3.2,8.7-8.2,9.2s-9.7,6-15.4,7.5c-3,.8.7,11.7,4.7,12.7,8.8,2.2,15.8,6.8,21.9,13.5,8.5,9.4,19.2,15.9,30.7,21,5.9,2.6,8.9,7.8,11.2,13s6.4,10.3,8.6,16a4.1,4.1,0,0,0,4.3,3.1,4.7,4.7,0,0,0,4.3-3.9,18.2,18.2,0,0,1,1.5-4.1c2.4-3.6,3-9.4,9.5-8.1s10.2,2.2,11.5,8.7c.7,3.6,4.5,4.6,7.2,4.8,5,.3,8.6,2.3,9.4,6.7a11.2,11.2,0,0,1-4.8,10.9c-3.7,2.6-4.9,4.2-.5,7.5s2.6,9.1,2.2,13.6c-1.1,12.6-5.9,23.4-17.8,29.7a7,7,0,0,0-3.6,4.9c-1,6.8-5.6,10.9-10.9,14.5a38.5,38.5,0,0,0-5.6,5.1c-7.7,7-15,13.2-27.1,8.4-6.3-2.5-12.9,3.5-19.6,5.2-1.5.3-2,2-2,3.5.2,5.6-3.2,8.2-7.8,10.1s-7.4,4-7.9,9.3-4.1,11.4-10.3,15.2-12.1,10.9-17,17.6c-1.4,1.9-1,3.3.9,4.7,3.7,2.4,3.6,5.7,1.9,9.3a19.5,19.5,0,0,0-.7,14.8c1.5,4.4,2.5,8.2-.8,12.8,5.2-.2,8.3,1.9,10.4,5.7.3.5.8,1.4,1.2,1.3,9-.3,11.3,8.2,16.7,12.6s4.4,8.7-.4,12.6c-6.8,5.5-6.8,5.6-.4,11.3s7.7,11.8,11.2,17.8-.9,11.1-8.9,16.7c-1.5,1-5.1,1-3.5,4s3.3.1,5.2-.5,5.9-1.4,8.4,1.8,5.5,3,7-1.7,6.7-8.4,11-11.5c2-1.4,5.1-.8,7.5,1.2,6.4,5.3,12.2,11.8,21.9,9.8a3.4,3.4,0,0,1,2.8,1.2c6.3,6.8,12.8,5.6,19.4.5,2.4-1.8,5.9-2.1,3.3-7.1-1.5-3.2,3.3-5.7,6.2-7.6s9.8-3.8,8.8-11.1c-.4-2.4,2.8-4,5.6-3.7,4.6.3,7.3-1.1,10.6-5.3s12.3-6.8,19.6-5.8c3.5.5,4.4-.1,5.5-3.5s1.5-10,5.7-13.5c1.9-1.6,1.4-3.3-.3-4.7-4.4-3.4-6-8.2-7.6-13.3-2.3-7.1-8.5-11.7-13-17.4-1.3-1.6-3.6-2.7-3.8-4.9-.4-8-6.3-13.4-9.4-20.2-1.2-2.7-2.8-5.1-1.5-8.2s-.4-2.9-1.9-4.1a71,71,0,0,1-6.4-5.9c-4.2-4.4-4.9-9.2-.4-13.8,2.3-2.5,2.7-5.3,3.3-8.5,1.1-5.9,4.5-11.4,4.1-17.7,8.3-2.5,6.7-14.8,16.3-16.3,2.7-.4,4.2-10.9,2-15-3.3-6.1-3.8-11.4,2.2-16.1,1.9-1.5.7-3.1,0-4.9-2.7-6.4-.7-10.2,5.9-12.5,3.4-1.2,6.7-2.3,10-3.7s9.7-3.1,8.7-10.4c-.3-2.7,3-5.6,3.2-8.6.3-4.8,1.1-9.8-1.7-14.6s-2.3-8.8,2.1-12.4,8.4-3.2,13.4-2.1c10.3,2.2,20.7,4.8,31.4,2.6,3.6-.7,5-4.3,7.3-6.6s6.8-4.8,10.8-1.2c2.1,1.9,3.7,1.4,5.2-.5,4.4-5.7,9.5-6.6,16.9-6s15.4-.3,23.1-.6c4.4-.3,6.7,1.2,9.5,5.2,4,5.8,10.6,9.8,13.3,17,.5,1.4,1.8.9,2.6.5,3.7-1.8,7.6-2.8,10.2-6.7,4.1-6.2,7.5-7,14.4-4.1,2.8,1.2,5.3,2.2,8.4.8s4.1-2.8,2.1-5.7-2.1-5.1,0-7.5,4.8-3.7,8.4-2.4,6.7-.3,9.5,2.2a1.8,1.8,0,0,0,2.8-.3,2.3,2.3,0,0,0-.1-2.9c-3.1-4.4-4-9-3.5-14.6s-4.3-7.3-6.9-10.9a44.1,44.1,0,0,0-4.7-5.8c-3.4-3.2-4.2-7.1-2.4-10.9s5.5-6.1,10.4-5.6a106.3,106.3,0,0,0,11.3.1c1.5,0,3-.4,3.5-2.1s-.7-2.2-1.5-3.2l-.4-.4c-3-3.4-8.4-6.4-5.5-11.5s8-9.1,15.3-8.5c4,.4,7.5-2.3,8.9-6.5s3.1-9,4.6-13.5c.2-.7.6-2,.2-2.3-4.5-4.2-5.3-9.9-7.4-15.2-1.2-3.3-6.2-4.1-9.9-2.6-9.5,3.9-9.8,4.1-14.8-4.4-2.1-3.8-3.5-5.1-7.3-1.7-6.3,5.7-14.1,3.5-16-4.7s.4-15,4.8-21.2c2.4-3.5,6.9-4.5,11.1-5.2s8.2-.8,10.9,3.7c1.1,1.8,3.5,1.2,5.3.4a33.3,33.3,0,0,1,17-3.1c2.4.2,3.8-.5,4.2-3.3,1.4-9.2,9.2-14.4,18.5-12.9,10.9,1.9,14.3.3,17.9-9.7s8.8-18.4,16.7-25.3c3-2.6,3.8-4.8,1.3-8.5a28.7,28.7,0,0,1-3.7-9.2,9.4,9.4,0,0,1,10.4-11.5c1.4.2,2.8.8,4.3,1.1,7.4,1.6,15,1.8,22.5,2,2.4,0,5.1-3.3,7.3-2.9,6.9,1.4,11.8-.2,15.6-6.4,1.3-2.1,4.6-1.4,7.1-1.5,8.5-.2,17.2,1.4,25.3-2.6,1.1-.6,2.7-.7,3.3-1.6,5.3-6.9,11.6-4.3,17.5-1.5,2.6,1.2,4.2,1.5,6.7-.1a12.6,12.6,0,0,1,7.9-1.7c7.2,1.1,13.8-2.5,20.9-3.1,4.7-.3,9-5.3,11.6-9.7s4.6-9.8,6.7-14.8c.5-1.1,1.3-2.7.9-3.5-3.6-7.5-4-15.6-6.1-23.4-1.2-4.5-.8-9.4-3.3-13.8-4-7.2-9.5-13.1-14.6-19.5-2-2.6-3.7-5.1-3.4-8.5.8-9.6-1.9-18.4-5.6-27.1-1.2-2.9.5-4.2,2.1-5.9s4-3.4,7.2-2.3c10.5,3.7,17,10.6,17.7,22.2a22.2,22.2,0,0,0,7.5,15.8c7.3,6.9,15.5,13.6,20.4,22.1,6.1,10.7,12.7,20.2,23.3,26.6,2,1.2,1.6,3.7,1.6,5.8,0,8.6-.1,17.2,0,25.8.1,5.8,1.8,6.4,6.8,3.7,13.7-7.3,27.4-6.3,40.9.3a51.9,51.9,0,0,1,7.5,4.6c2,1.3,3.5.7,5-.8s1-2.7.1-4.4c-3-5.2-6.5-10.2-1.9-16.5,2.9-4,5.9-4.7,9.5-1.8,6.5,5.5,13.2,11,18.9,17.5a19.2,19.2,0,0,1,4.5,9.4,7,7,0,0,0,5.6,6.1c3.3.8,5-1.2,6.5-3.7,2.9-5.2,8.2-6.2,13.2-7.2s7-.9,9.7-3.6a4.4,4.4,0,0,1,3.9-1.6c8.1,1.5,15.5-3,23.4-2.6,1.7.1,3.5-.1,3.7-2.4.3-4.6,3.1-8.2,7-8.4a13.8,13.8,0,0,1,12.8,6.5c.4.7.6,1.5,1.4,3.3,4.3-8.3,10.5-5.6,16.3-3.8a7,7,0,0,1,5.3,7,64.2,64.2,0,0,1,0,7.6c-1.3,11.2,5.6,18.1,12.8,25l.4.4c11.9,3,18.5,14.2,29.2,19s18.1,9.3,28.8,8.7a11.6,11.6,0,0,1,7.9,2.8c8,6.2,18.1,6.8,27.3,9.7,4.3,1.4,8.8,2.5,13,4.1,5.9,2.3,6,8,6.5,13.2.2,2.2.5,4.1,2.8,5s4.2.6,5.8-1.1c5.3-6,13-7.3,19.9-10,14.8-5.8,29.8-11.6,44.9-16.7m-671,216.2c-1.3-.1-2.3.1-2.4,1.5s1,1.8,2.1,1.8c3.5.1,6.9,0,10.1,2.2,1.5,1,2.6-.8,3-2.2s-1-2.3-2.5-2.4C2235.2,2019.2,2231.6,2019.8,2228.4,2018.4Zm-82.1,15.1c.2,2-.4,4.5,2.8,4.5,1.5.1,3.5-.8,2.8-2.3s-1.3-5.3-4.1-5.6S2146.6,2032.2,2146.3,2033.5Z" style="fill:#29526e"/>
        <path d="M216.7,954.5l-1.3,1.2C215.2,954.7,215.6,954.2,216.7,954.5Z" style="fill:#29526e"/>
        <path d="M2228.4,2018.4c3.2,1.4,6.8.8,10.3.9,1.5.1,3.2.1,2.5,2.4s-1.5,3.2-3,2.2c-3.2-2.2-6.6-2.1-10.1-2.2-1.1,0-2.1-.5-2.1-1.8S2227.1,2018.3,2228.4,2018.4Z" style="fill:#29526e"/>
        <path d="M2146.3,2033.5c.3-1.3-.3-3.7,1.5-3.4s3,3.6,4.1,5.6-1.3,2.4-2.8,2.3C2145.9,2038,2146.5,2035.5,2146.3,2033.5Z" style="fill:#29526e"/>
    </g>
    <g id="Dot">
        
        <circle cx="265.2" cy="1246.6" r="25" fill="none" stroke="#fa000e" stroke-width="7" style="animation-play-state: running; animation-delay: 0s;">
            <animate attributeName="r" repeatCount="indefinite" dur="0.9615384615384615s" values="0;30" keyTimes="0;1" keySplines="0 0.2 0.8 1" calcMode="spline" begin="0s" style="animation-play-state: running; animation-delay: 0s;"></animate>
            <animate attributeName="opacity" repeatCount="indefinite" dur="0.9615384615384615s" values="3;0" keyTimes="0;1" keySplines="0.2 0 0.8 1" calcMode="spline" begin="0s" style="animation-play-state: running; animation-delay: 0s;"></animate>
        </circle>
        <circle cx="265.2" cy="1246.6" r="25" fill="none" stroke="#003c8d" stroke-width="7" style="animation-play-state: running; animation-delay: 0s;">
            <animate attributeName="r" repeatCount="indefinite" dur="0.9615384615384615s" values="0;30" keyTimes="0;1" keySplines="0 0.2 0.8 1" calcMode="spline" begin="-0.4807692307692307s" style="animation-play-state: running; animation-delay: 0s;"></animate>
            <animate attributeName="opacity" repeatCount="indefinite" dur="0.9615384615384615s" values="3;0" keyTimes="0;1" keySplines="0.2 0 0.8 1" calcMode="spline" begin="-0.4807692307692307s" style="animation-play-state: running; animation-delay: 0s;"></animate>
        </circle>

        
        <circle cx="890.8" cy="1380.8" r="25" fill="none" stroke="#fa000e" stroke-width="7" style="animation-play-state: running; animation-delay: 0s;">
            <animate attributeName="r" repeatCount="indefinite" dur="0.9615384615384615s" values="0;30" keyTimes="0;1" keySplines="0 0.2 0.8 1" calcMode="spline" begin="0s" style="animation-play-state: running; animation-delay: 0s;"></animate>
            <animate attributeName="opacity" repeatCount="indefinite" dur="0.9615384615384615s" values="3;0" keyTimes="0;1" keySplines="0.2 0 0.8 1" calcMode="spline" begin="0s" style="animation-play-state: running; animation-delay: 0s;"></animate>
        </circle>
        <circle cx="890.8" cy="1380.8" r="25" fill="none" stroke="#003c8d" stroke-width="7" style="animation-play-state: running; animation-delay: 0s;">
            <animate attributeName="r" repeatCount="indefinite" dur="0.9615384615384615s" values="0;30" keyTimes="0;1" keySplines="0 0.2 0.8 1" calcMode="spline" begin="-0.4807692307692307s" style="animation-play-state: running; animation-delay: 0s;"></animate>
            <animate attributeName="opacity" repeatCount="indefinite" dur="0.9615384615384615s" values="3;0" keyTimes="0;1" keySplines="0.2 0 0.8 1" calcMode="spline" begin="-0.4807692307692307s" style="animation-play-state: running; animation-delay: 0s;"></animate>
        </circle>

        
        <circle cx="1413.1" cy="1424" r="25" fill="none" stroke="#fa000e" stroke-width="7" style="animation-play-state: running; animation-delay: 0s;">
            <animate attributeName="r" repeatCount="indefinite" dur="0.9615384615384615s" values="0;30" keyTimes="0;1" keySplines="0 0.2 0.8 1" calcMode="spline" begin="0s" style="animation-play-state: running; animation-delay: 0s;"></animate>
            <animate attributeName="opacity" repeatCount="indefinite" dur="0.9615384615384615s" values="3;0" keyTimes="0;1" keySplines="0.2 0 0.8 1" calcMode="spline" begin="0s" style="animation-play-state: running; animation-delay: 0s;"></animate>
        </circle>
        <circle cx="1413.1" cy="1424" r="25" fill="none" stroke="#003c8d" stroke-width="7" style="animation-play-state: running; animation-delay: 0s;">
            <animate attributeName="r" repeatCount="indefinite" dur="0.9615384615384615s" values="0;30" keyTimes="0;1" keySplines="0 0.2 0.8 1" calcMode="spline" begin="-0.4807692307692307s" style="animation-play-state: running; animation-delay: 0s;"></animate>
            <animate attributeName="opacity" repeatCount="indefinite" dur="0.9615384615384615s" values="3;0" keyTimes="0;1" keySplines="0.2 0 0.8 1" calcMode="spline" begin="-0.4807692307692307s" style="animation-play-state: running; animation-delay: 0s;"></animate>
        </circle>

        
        <circle cx="1539.9" cy="1445.2" r="25" fill="none" stroke="#fa000e" stroke-width="7" style="animation-play-state: running; animation-delay: 0s;">
            <animate attributeName="r" repeatCount="indefinite" dur="0.9615384615384615s" values="0;30" keyTimes="0;1" keySplines="0 0.2 0.8 1" calcMode="spline" begin="0s" style="animation-play-state: running; animation-delay: 0s;"></animate>
            <animate attributeName="opacity" repeatCount="indefinite" dur="0.9615384615384615s" values="3;0" keyTimes="0;1" keySplines="0.2 0 0.8 1" calcMode="spline" begin="0s" style="animation-play-state: running; animation-delay: 0s;"></animate>
        </circle>
        <circle cx="1539.9" cy="1445.2" r="25" fill="none" stroke="#003c8d" stroke-width="7" style="animation-play-state: running; animation-delay: 0s;">
            <animate attributeName="r" repeatCount="indefinite" dur="0.9615384615384615s" values="0;30" keyTimes="0;1" keySplines="0 0.2 0.8 1" calcMode="spline" begin="-0.4807692307692307s" style="animation-play-state: running; animation-delay: 0s;"></animate>
            <animate attributeName="opacity" repeatCount="indefinite" dur="0.9615384615384615s" values="3;0" keyTimes="0;1" keySplines="0.2 0 0.8 1" calcMode="spline" begin="-0.4807692307692307s" style="animation-play-state: running; animation-delay: 0s;"></animate>
        </circle>

        
        <circle cx="1697.4" cy="1173.5" r="25" fill="none" stroke="#fa000e" stroke-width="7" style="animation-play-state: running; animation-delay: 0s;">
            <animate attributeName="r" repeatCount="indefinite" dur="0.9615384615384615s" values="0;30" keyTimes="0;1" keySplines="0 0.2 0.8 1" calcMode="spline" begin="0s" style="animation-play-state: running; animation-delay: 0s;"></animate>
            <animate attributeName="opacity" repeatCount="indefinite" dur="0.9615384615384615s" values="3;0" keyTimes="0;1" keySplines="0.2 0 0.8 1" calcMode="spline" begin="0s" style="animation-play-state: running; animation-delay: 0s;"></animate>
        </circle>
        <circle cx="1697.4" cy="1173.5" r="25" fill="none" stroke="#003c8d" stroke-width="7" style="animation-play-state: running; animation-delay: 0s;">
            <animate attributeName="r" repeatCount="indefinite" dur="0.9615384615384615s" values="0;30" keyTimes="0;1" keySplines="0 0.2 0.8 1" calcMode="spline" begin="-0.4807692307692307s" style="animation-play-state: running; animation-delay: 0s;"></animate>
            <animate attributeName="opacity" repeatCount="indefinite" dur="0.9615384615384615s" values="3;0" keyTimes="0;1" keySplines="0.2 0 0.8 1" calcMode="spline" begin="-0.4807692307692307s" style="animation-play-state: running; animation-delay: 0s;"></animate>
        </circle>

        
        <circle cx="1759.4" cy="1596.8" r="25" fill="none" stroke="#fa000e" stroke-width="7" style="animation-play-state: running; animation-delay: 0s;">
            <animate attributeName="r" repeatCount="indefinite" dur="0.9615384615384615s" values="0;30" keyTimes="0;1" keySplines="0 0.2 0.8 1" calcMode="spline" begin="0s" style="animation-play-state: running; animation-delay: 0s;"></animate>
            <animate attributeName="opacity" repeatCount="indefinite" dur="0.9615384615384615s" values="3;0" keyTimes="0;1" keySplines="0.2 0 0.8 1" calcMode="spline" begin="0s" style="animation-play-state: running; animation-delay: 0s;"></animate>
        </circle>
        <circle cx="1759.4" cy="1596.8" r="25" fill="none" stroke="#003c8d" stroke-width="7" style="animation-play-state: running; animation-delay: 0s;">
            <animate attributeName="r" repeatCount="indefinite" dur="0.9615384615384615s" values="0;30" keyTimes="0;1" keySplines="0 0.2 0.8 1" calcMode="spline" begin="-0.4807692307692307s" style="animation-play-state: running; animation-delay: 0s;"></animate>
            <animate attributeName="opacity" repeatCount="indefinite" dur="0.9615384615384615s" values="3;0" keyTimes="0;1" keySplines="0.2 0 0.8 1" calcMode="spline" begin="-0.4807692307692307s" style="animation-play-state: running; animation-delay: 0s;"></animate>
        </circle>

        
        <circle cx="2390.8" cy="1752.3" r="25" fill="none" stroke="#fa000e" stroke-width="7" style="animation-play-state: running; animation-delay: 0s;">
            <animate attributeName="r" repeatCount="indefinite" dur="0.9615384615384615s" values="0;30" keyTimes="0;1" keySplines="0 0.2 0.8 1" calcMode="spline" begin="0s" style="animation-play-state: running; animation-delay: 0s;"></animate>
            <animate attributeName="opacity" repeatCount="indefinite" dur="0.9615384615384615s" values="3;0" keyTimes="0;1" keySplines="0.2 0 0.8 1" calcMode="spline" begin="0s" style="animation-play-state: running; animation-delay: 0s;"></animate>
        </circle>
        <circle cx="2390.8" cy="1752.3" r="25" fill="none" stroke="#003c8d" stroke-width="7" style="animation-play-state: running; animation-delay: 0s;">
            <animate attributeName="r" repeatCount="indefinite" dur="0.9615384615384615s" values="0;30" keyTimes="0;1" keySplines="0 0.2 0.8 1" calcMode="spline" begin="-0.4807692307692307s" style="animation-play-state: running; animation-delay: 0s;"></animate>
            <animate attributeName="opacity" repeatCount="indefinite" dur="0.9615384615384615s" values="3;0" keyTimes="0;1" keySplines="0.2 0 0.8 1" calcMode="spline" begin="-0.4807692307692307s" style="animation-play-state: running; animation-delay: 0s;"></animate>
        </circle>

        
        <circle cx="2834.9" cy="1849.8" r="25" fill="none" stroke="#fa000e" stroke-width="7" style="animation-play-state: running; animation-delay: 0s;">
            <animate attributeName="r" repeatCount="indefinite" dur="0.9615384615384615s" values="0;30" keyTimes="0;1" keySplines="0 0.2 0.8 1" calcMode="spline" begin="0s" style="animation-play-state: running; animation-delay: 0s;"></animate>
            <animate attributeName="opacity" repeatCount="indefinite" dur="0.9615384615384615s" values="3;0" keyTimes="0;1" keySplines="0.2 0 0.8 1" calcMode="spline" begin="0s" style="animation-play-state: running; animation-delay: 0s;"></animate>
        </circle>
        <circle cx="2834.9" cy="1849.8" r="25" fill="none" stroke="#003c8d" stroke-width="7" style="animation-play-state: running; animation-delay: 0s;">
            <animate attributeName="r" repeatCount="indefinite" dur="0.9615384615384615s" values="0;30" keyTimes="0;1" keySplines="0 0.2 0.8 1" calcMode="spline" begin="-0.4807692307692307s" style="animation-play-state: running; animation-delay: 0s;"></animate>
            <animate attributeName="opacity" repeatCount="indefinite" dur="0.9615384615384615s" values="3;0" keyTimes="0;1" keySplines="0.2 0 0.8 1" calcMode="spline" begin="-0.4807692307692307s" style="animation-play-state: running; animation-delay: 0s;"></animate>
        </circle>

    </g>
</svg>