<svg xmlns="http://www.w3.org/2000/svg" width="3000" height="3000" viewBox="0 0 3000 3000">
    <g id="SVG">
        <path d="M2103.2,574.7c-7.4-2.5-14.5.3-16.1-1.5-3.3-3.7-6.8-4.2-10.9-1.4a1.7,1.7,0,0,1-1.7.1c-5.1-3.4-5.7-9.4-8.2-14.4-1.3-2.6.4-4.3,2.3-6.1,5.1-4.5,5.5-8.5,2.1-13.8-4.9-7.7-4.5-10.6,1.3-17.1s15.3-14.2,17.4-25.2a2.3,2.3,0,0,1,1-1.5c9.5-4.4,8-13.8,9-21.6.6-4.5,1.6-8.1,5-10.9s4.3-6,4.3-10.2c.4-20.9-.9-23.3-17.9-33.4,3.2-3.8,6.4-8,10-11.9,6.9-7.3,8.1-13.3,3.9-22.6-.8-1.7-1.9-3.4-1.2-5.1,3.6-8.6-2.5-11.7-8.3-15-.7-.5-1.7-.5-2.4-1.1s-2.2-4.2.1-5.1c10.1-3.5,10.9-12.2,12.2-20.7h-9c-1.3,3.8-1,8.1-5.5,10.6-9.4,5.4-10.9,12-6.3,21.5,2,4.1,5.9,4.5,8.7,6.7s-2.6,7.4,1.5,10.6a10,10,0,0,1,2.3,2.7c1.5,2.5,1.6,5.3-.4,7.4-3.9,4-6.9,8.9-13.8,8.8s-6.8,2.1-5.6,7.5a17.1,17.1,0,0,1,0,7.8c-1.4,6.6,3.5,11.6,10.1,10.3a7.7,7.7,0,0,1,7.3,1.9c7,6.2,8,18.7,1.3,25.4a22.4,22.4,0,0,0-6.7,16.9c0,2.7,1,6.2-.8,7.8-6.6,5.4-9.3,12.8-12.8,20.1-2.4,5.2-6.3,10.7-12.8,13.2-3.3,1.3-3.6,5-4.2,8.3-1.3,7.1.3,14.5-.9,21-2.8,14.3,3.8,24.8,10.3,35.7,1.2,2,3.1,3.5,5.2,2.9,6.8-2.1,13.4.3,20.2.2,3.5,0,6.7-3.1,10.5-1-.2,4-2.5,6.5-6,7.9-1.7.7-4.1,1-4.3,2.9-.6,6.1-4.8,9.1-9.3,12.2-2.4,1.7-3.5,4.9-.7,6.8,4.4,3,9.1,5.5,11,11,.2.6,1.5,1,2.3,1.1,5.9.5,9.3,5.1,13.4,8.2s5.1,6.2,1.6,11.5c-5.5,8.3-5.2,16.7-1.2,25.3a31.8,31.8,0,0,0,1.6,3.2c1.8,3.4,2.4,6.4-2.4,7.6s-4,3.5-4.9,6.5c-1.7,5.3-1.2,10.7-1.6,16-.6,7.4-7.5,11.1-13.9,7.6-2.1-1.1-4.3-2.9-6.5-2.8-5.3,0-7.4-3.1-8.9-7.2-2.4-6.4-7.2-8.2-13.5-7.5s-7.5,3.5-4.7,7.7c5.5,8.4,4.4,17.6,4.6,26.8.1,4.4-.4,8.8,1.4,13.2,3.8,9.3,3.6,9.9-4.8,14.8-4.6,2.7-6.2,6.3-5.5,11.2.4,3.2,1.4,6.4,1.6,9.6.6,7.3-4.2,11.1-11.3,9.8-3.6-.6-4.5-3.4-6-6-3.7-6.3-3.8-6.2-11.3-5a31.4,31.4,0,0,1-5.3.3c-7.8.1-9-1-10.9-8.6-1.2-5-2.8-6.7-7.3-5.2s-7.3.4-10.2-2.7c-4.3-4.8-10-3.9-15-2.5-7.1,2-9.6,12.1-4,16.5,3.7,2.8,4.5,5.9,4.4,9.9s-.1,6.2,3.4,8.5c5.5,3.7,8.2,12.2,6.1,18.5-1.5,4.8-2.8,8.5,3,11.9s4.8,7,.2,10.8c-2.3,1.9-3.6,3.4-2.9,6.6s-1.8,2.5-3.6,2.3-2.7-2.2-4.1-3.3c-8.2-6.2-15.2-4.6-18.8,5-1.9,5.2-4.4,9.5-9.1,12.7a10.3,10.3,0,0,0-3.6,3.9c-3.9,10.2-13.9,10.5-21.9,12l10.5,11.2c2.9-.1,2.4,6.7,4,10.2.5,1,1.6,1.8,2.1,2.8,3,5.6,5.4,11.2.8,17.2a10.5,10.5,0,0,0-2,7.7c.5,4.6-1.4,8-4.8,10.9s-4.6,4.6-7,6.9-3.3,4.1-2.3,6.4c3.4,7.5-3.4,16.1,2.7,23.2a2.1,2.1,0,0,1-.2,1.7c-3.9,4-5.2,9.3-7.1,14.2-.8,2.3-3,2.7-5.2,2.7-5.3.1-8,3.5-10.3,7.5s-2.9,5.9-4.4,8.8-3.5,8.6-9.6,9.4-2.3,9.2-7.7,11l-3.3,1.3a4.5,4.5,0,0,0-3.2,2.9c-2,6.7-7.7,8.5-13.4,10.6-4,1.5-7.5,3.3-9,8.8s-7.6,9.6-7.7,16.4c-.1.8-1.6,1.7-2.7,2.2-3.8,2.1-4.9,5.5-5.7,9.5-1.6,7.6-3.9,14.6-10.1,20.4s-8.1,10.8-7.5,18.4a23.5,23.5,0,0,1-3.5,13.6c-1,1.6-1.9,3.2-1.7,5,.6,4.7-1.7,8-5.1,10.8a10.1,10.1,0,0,0-3.6,11.2c1.8,6.5-6.6,11-3.3,17.7.1.2-1.7,1.5-2.7,2-10.6,5.3-16.8,13.9-19.6,25.3-.8,3.3-1.9,6.3.2,9.4s1.8,5.1-.8,7.1c-4.4,3.3-5,7.9-4.5,12.8.6,7.2-.2,13.7-6.7,18.3a4.3,4.3,0,0,0-1.9,2.9c.1,4.9-3.6,5.6-6.9,6.9-7.4,2.9-8.8,5.2-7.5,12.8a22.3,22.3,0,0,1,.6,7.8c-1.5,9.5-6,16.6-14.5,21.2-3.1,1.7-6.3,3.4-6.2,8,.2,8-1.1,16.3.4,24.1s-1.3,13.5-.5,20.2a5.5,5.5,0,0,1-2.4,4.7c-4.7,3.5-5.1,8.5-4.6,13.7s-1.1,10.4-4.5,14.9c-5.2,6.9-10.1,14-15.2,20.9-2.6,3.5-4.9,7.4-3.2,11.6,3.4,8.5-.1,14.1-6.3,19.4-2.6,2.3-6.4,4.5-6.4,8.3,0,6.7-4.5,10.1-9.1,13.4a44.9,44.9,0,0,0-11.7,12.1c-3.3,5.3-6.8,10.5-10.4,15.6-9.1,12.8-16,27.4-30,36.2-2.9,1.8-4.7,5-3.1,8.5s-.1,6-1.4,9.1c-3.2,7.6-7.5,15.1-6.3,23.9.8,6.4-1,12.3-4.2,17.9s-6.8,13.1-7.3,20.9c-.3,3.2.5,8.1-2.6,10-5.2,3.1-5.9,8-7.1,12.7-.8,2.9-3.2,4.1-4.9,6-6.4,7.3-14.2,14.3-13.2,25.3.8,9.2-2.8,15.1-10.4,19.8-5.1,3.1-8.4,7.9-9.8,14.3-2.4,11.4-6.2,22.4-9,33.6-3.4,13.8-8.5,27.4-6.8,42a17.8,17.8,0,0,1-1,7.9c-3.4,9-6.5,18-9.6,27-3.9,11.6-18,30.1-28.2,36.9-4.7,3.1-10.9,5.4-13.6,9.8-5,8-11.8,14.1-18.2,20.7-2.9,3-3.6,6.3-2.3,9.9s.6,6.5-.9,10.1c-2.4,5.9-4.2,12.2-1.8,18.9,1.1,3.2,2.9,6.6,1.1,10.4-2.9,5.8-2.6,12.1-2.6,18.4,0,3.6.3,7.1-.6,10.7-2.1,9-4,18-6.1,27-.6,2.6-1.2,5.7,0,7.9,4.6,7.8,1.6,14-3.5,19.9a10.2,10.2,0,0,0-2.1,3,11.9,11.9,0,0,1-3,5.2,27.6,27.6,0,0,1-2.9,7.3c-1,2-5.3,7.7-11.2,14.8h0c-3.8,6.2-6.3,12.7-6.6,20.2a35.7,35.7,0,0,1-3.2,13.7c-1.8,3.9-1.7,7.1-1.1,11.1,1,7.6,4.4,15.5,2.3,22.9-2.8,10.3-5.6,20.8-10.9,30.1-13.4,23.6-27.3,46.9-40.7,70.4-18.1,31.5-35.6,63.4-54,94.7-5,8.4-8,16.5-6.9,26.1.5,4.4-.5,8.5-3.7,11.5-7.4,7-8.1,16.4-8.7,25.5-.8,12.7-3.9,23.7-14.9,31.6-3.3,2.3-6.7,5.4-7.7,9.6-1.9,8.1-4.5,15.9-4.6,24.5-.4,17.3,3,34.4,2,51.7-.3,5.4-.6,10.6-2.4,15.8-2.9,8.6-4.6,17.2-1.6,26.3a9.6,9.6,0,0,1-1.5,8.5,36.3,36.3,0,0,0-5.4,24c.5,4.3-1.3,7.1-5,9.5s-8.3,6.5-9,11.8c-.9,7.2-5.7,13.2-5.9,20.5-.1,2.4-2,3.6-4,4.5-6,2.7-10.3,6.9-12,13.5-.5,1.8-1.8,3-2.9,4.5-7.5,10-16.6,18.7-24.8,28-17.6,19.9-36,38.9-54.3,58.1a42.1,42.1,0,0,0-11.2,20c-5.4,23.2-10.7,46.3-16.1,69.5-3,13-5.9,26-8.9,39.1h10.7c.2-2.7,0-5.4.6-8q11.4-49.5,23-99c1.3-5.5,3.7-10.9,7.9-14.9,12.2-11.4,22.8-24.4,34.3-36.4a14.8,14.8,0,0,1,3.2-2.7c3.7-6.9,7.7-9.9,7.7-9.9a21.8,21.8,0,0,1,4.2-2.6,8.9,8.9,0,0,1,1.5-2.9,14.8,14.8,0,0,1,2.5-2.5c9.6-8.6,16.7-19.5,26.2-28.1a11.5,11.5,0,0,0,3.8-6c1.6-6.7,6-10.8,12.5-12.6s7.3-4.7,7.1-9.9c-.4-11.7,3.4-21.6,12.7-29.1,4.1-3.2,5.7-7.3,5.2-12.5-.7-7.6.3-15,4.2-21.6s3.9-12.7,2.3-19.1a20.6,20.6,0,0,1,.7-13c1.5-4.2,2.6-8.6,4.2-12.7a16.9,16.9,0,0,0,.8-10.6c-1.8-5.9-1.3-11.8-1.5-17.7-.3-10.7,1-21.5-1.6-32.1-.6-2.5.1-5.3.5-8,1.7-10,5.7-18.6,14-24.9,2.6-2,4.7-4.6,7-6.9s3-3,3.3-5.2c1.2-9.1,2.6-18.2,3.7-27.4.6-5.1,1.6-9.8,5.2-13.8a21.5,21.5,0,0,0,5.7-16.4c-.2-7.1,1-14.3,4.6-20.6,8-14.3,16.3-28.4,24.5-42.6,9.3-16,18.6-31.9,27.8-47.9,10.7-18.6,20.6-37.6,31.9-55.9a219.4,219.4,0,0,0,24.1-53.4c1-3.2.8-6.2.5-9.5-.6-6.8-3.7-13.6-2.1-20.3s3.1-16.3,4.7-24.5c.9-5.1,3.2-9.5,5.9-13.8,7.4-11.5,14.7-23.1,22.1-34.7,2.5-4,3.5-7.9,2-12.7s-1.1-11.7-.2-17.7c1.8-11.4,5.6-22.5,4.9-34.3a25.9,25.9,0,0,1,3.2-14.6,9.1,9.1,0,0,0,.2-10.1c-1.6-2.9-2.6-6-.9-9.3,3.4-6.6,4-13.5,2.7-20.7-.7-4.4.2-8,4.7-10.6s6.3-4.3,7.7-7.4c4.1-9,12.4-13.2,19.8-18.6,11.7-8.7,20.2-20.3,26.2-33.4s8.8-24.6,13.2-37c1.5-4.3,2.4-8.4.7-13s-.5-7,.5-10.5c4.6-17,9.3-33.9,13.3-51,1.9-8,5.9-14,12.8-18.3s9.1-8.6,8.8-16.3c-.4-10.8,3.2-20.7,12.5-27.1,4.3-3,6.8-6.4,7.1-11.6s7.8-5.9,7.1-11.7a4.9,4.9,0,0,1,.1-1.7c2.1-8.9,1.3-18.4,7.2-26.3,1.7-2.4,2.7-5.3,4.4-7.7s3.4-6.5,2.3-10.2c-3.1-10,.6-18,6.8-25.3,1.9-2.3,3.3-4.7,2-7.3-2.4-5-.1-8.4,3.6-10.6,6.2-3.7,9.7-9.5,13.6-15.1,11.6-16.6,21-34.8,36.8-48.2,4-3.4,8.3-6.9,7.8-13.3-.2-2.1,2-3.5,3.5-5s5.3-5.7,8.2-8.2,5-7.2,3.2-12.1-.7-11,3-15.9,7.4-11.6,11.9-16.7,6.2-10.6,5.8-17.2c-.2-3.1-1.2-7,1.3-9.4,4.4-4.3,6.4-9.1,6-15.1-.2-2.3,1.6-3.8,3-5.3s2.7-5,.7-7.3c-4.5-5.3-3.4-11.6-4.1-17.8s2-11.8,8.3-15.1a20.2,20.2,0,0,0,10.8-14.4c1.2-5.5,3-10.8,2.6-16.6-.3-3.8,1.1-6.2,5.1-7.2s6.1-1.6,6.4-4.2c.9-5.6,4.5-9,8-12.6,1.8-1.8,2-4.2,2-6.6s.2-6.6-.1-9.9.8-8.1,4.3-11.2,4.8-7.3,2.3-12.7.6-12.6,7.8-14.3c2.6-.6,5.2-1.4,5-4.1-.3-5.9,3.7-7.6,7.9-9.5s4.6-3.8,4.4-8.3c-.3-6.4,2.2-12.9,1-19.5a1.3,1.3,0,0,1,.3-.8c5.8-5.2,7.5-11.7,8.6-19.3.9-5.3,3.7-10.6,3.2-16.3s1.6-8.9,5.2-12.6c5.6-5.8,10.3-12.2,11.5-20.7.5-4.4,2.2-8.7,6.9-10.9,2.8-1.3,3.1-3.9,3.4-6.7.7-6.4,8.2-17.4,14.2-18.8,11.4-2.8,16.9-11.8,23.4-20,1-1.2,1.6-2.6,3.2-2.6,4.5-.2,5.8-3.7,7.4-6.9s4.3-8.5,6.4-12.8,4.6-7.3,10-7.5,8.8-3.3,9.7-8.7,2.4-8.6,6.1-11.6c1.7-1.4,2.8-3.8,1.8-5.6-3.1-5.6-.8-11.8-2.2-17-1.9-7.7,1.6-11.2,6.1-15.2s6.1-6.5,5.3-11.6a12.1,12.1,0,0,1,3.6-10.6c4.7-5,1.6-11.3,3.2-16.8,1-3.4-3.2-5.4-5.3-7.8-4.6-5.2-4.3-7,1.8-9.7,1.6-.8,3.3-1.4,4.8-2.3s3.2-3.4,2.1-5.4c-4.1-7.1-1.5-12.2,4.3-16.8a9.3,9.3,0,0,0,2.6-4.5c1.4-4.5,3-5.4,7.7-3,9.9,5,17.8,1.9,23-7.8,1.7-3.2,3.6-6.2,5.4-9.3,3.4-5.8,3.5-8.2-1.4-12.5s-6.3-9.1-3.3-15c1.9-3.5.8-6.2-2.1-8.6s-3.4-3.4-3.3-6.1-1.3-6-4.9-7.5-3.3-5.5-1.4-6.5,6.8-.3,10.2-1.7,2.9,1.5,4.1,2.8c5.9,6.4,12.2,11.6,21.8,8,3.4-1.2,5.7.4,7.1,3.6a13.8,13.8,0,0,0,7.6,7c7.2,3.2,13.5.5,19.7-2.3s5.2-11.1,10.2-15.2c1.1-.9-.6-2.6-1.4-3.9-5-7.7-4.6-9.6,3.5-14.5,6-3.7,6.9-5.9,5-12.5-1-3.5-2.2-6.8-3.3-10.3-1.9-6.3-1.6-12.7-.3-19.6,5.8,2.2,11.9-1,16.8,3.2s8.4,2.6,13.2.4c8-3.8,13.8-8.3,12.2-18.3-.3-2,.7-4.1.9-6.1.4-4.9,3-7.2,7.6-8.4,6.3-1.7,7.1-3.6,4.6-9.5s-4.3-8.5-6.2-12.9-2.8-10.6,1.2-15.9,3.8-15.6-1.9-21-8.8-10.3-15.4-13.3c-4.5-2.1,17.2-28,13.9-37.9M1981,765.8c-.1-.9,1-1.1,2-1.1s3.2,1.4,2.9,3.6c0,.3-.9.9-1.3.8S1981.3,767.7,1981,765.8Z" style="fill:#2aa7c9"/>
    </g>
    <g id="Dot">

        <circle cx="1144.5" cy="2719.1" r="25" fill="none" stroke="#fa000e" stroke-width="7" style="animation-play-state: running; animation-delay: 0s;">
            <animate attributeName="r" repeatCount="indefinite" dur="0.9615384615384615s" values="0;30" keyTimes="0;1" keySplines="0 0.2 0.8 1" calcMode="spline" begin="0s" style="animation-play-state: running; animation-delay: 0s;"></animate>
            <animate attributeName="opacity" repeatCount="indefinite" dur="0.9615384615384615s" values="3;0" keyTimes="0;1" keySplines="0.2 0 0.8 1" calcMode="spline" begin="0s" style="animation-play-state: running; animation-delay: 0s;"></animate>
        </circle>
        <circle cx="1144.5" cy="2719.1" r="25" fill="none" stroke="#003c8d" stroke-width="7" style="animation-play-state: running; animation-delay: 0s;">
            <animate attributeName="r" repeatCount="indefinite" dur="0.9615384615384615s" values="0;30" keyTimes="0;1" keySplines="0 0.2 0.8 1" calcMode="spline" begin="-0.4807692307692307s" style="animation-play-state: running; animation-delay: 0s;"></animate>
            <animate attributeName="opacity" repeatCount="indefinite" dur="0.9615384615384615s" values="3;0" keyTimes="0;1" keySplines="0.2 0 0.8 1" calcMode="spline" begin="-0.4807692307692307s" style="animation-play-state: running; animation-delay: 0s;"></animate>
        </circle>

        <circle cx="1234.1" cy="2616.9" r="25" fill="none" stroke="#fa000e" stroke-width="7" style="animation-play-state: running; animation-delay: 0s;">
            <animate attributeName="r" repeatCount="indefinite" dur="0.9615384615384615s" values="0;30" keyTimes="0;1" keySplines="0 0.2 0.8 1" calcMode="spline" begin="0s" style="animation-play-state: running; animation-delay: 0s;"></animate>
            <animate attributeName="opacity" repeatCount="indefinite" dur="0.9615384615384615s" values="3;0" keyTimes="0;1" keySplines="0.2 0 0.8 1" calcMode="spline" begin="0s" style="animation-play-state: running; animation-delay: 0s;"></animate>
        </circle>
        <circle cx="1234.1" cy="2616.9" r="25" fill="none" stroke="#003c8d" stroke-width="7" style="animation-play-state: running; animation-delay: 0s;">
            <animate attributeName="r" repeatCount="indefinite" dur="0.9615384615384615s" values="0;30" keyTimes="0;1" keySplines="0 0.2 0.8 1" calcMode="spline" begin="-0.4807692307692307s" style="animation-play-state: running; animation-delay: 0s;"></animate>
            <animate attributeName="opacity" repeatCount="indefinite" dur="0.9615384615384615s" values="3;0" keyTimes="0;1" keySplines="0.2 0 0.8 1" calcMode="spline" begin="-0.4807692307692307s" style="animation-play-state: running; animation-delay: 0s;"></animate>
        </circle>

        <circle cx="1272.7" cy="2563.5" r="25" fill="none" stroke="#fa000e" stroke-width="7" style="animation-play-state: running; animation-delay: 0s;">
            <animate attributeName="r" repeatCount="indefinite" dur="0.9615384615384615s" values="0;30" keyTimes="0;1" keySplines="0 0.2 0.8 1" calcMode="spline" begin="0s" style="animation-play-state: running; animation-delay: 0s;"></animate>
            <animate attributeName="opacity" repeatCount="indefinite" dur="0.9615384615384615s" values="3;0" keyTimes="0;1" keySplines="0.2 0 0.8 1" calcMode="spline" begin="0s" style="animation-play-state: running; animation-delay: 0s;"></animate>
        </circle>
        <circle cx="1272.7" cy="2563.5" r="25" fill="none" stroke="#003c8d" stroke-width="7" style="animation-play-state: running; animation-delay: 0s;">
            <animate attributeName="r" repeatCount="indefinite" dur="0.9615384615384615s" values="0;30" keyTimes="0;1" keySplines="0 0.2 0.8 1" calcMode="spline" begin="-0.4807692307692307s" style="animation-play-state: running; animation-delay: 0s;"></animate>
            <animate attributeName="opacity" repeatCount="indefinite" dur="0.9615384615384615s" values="3;0" keyTimes="0;1" keySplines="0.2 0 0.8 1" calcMode="spline" begin="-0.4807692307692307s" style="animation-play-state: running; animation-delay: 0s;"></animate>
        </circle>

        <circle cx="1286.8" cy="2403.1" r="25" fill="none" stroke="#fa000e" stroke-width="7" style="animation-play-state: running; animation-delay: 0s;">
            <animate attributeName="r" repeatCount="indefinite" dur="0.9615384615384615s" values="0;30" keyTimes="0;1" keySplines="0 0.2 0.8 1" calcMode="spline" begin="0s" style="animation-play-state: running; animation-delay: 0s;"></animate>
            <animate attributeName="opacity" repeatCount="indefinite" dur="0.9615384615384615s" values="3;0" keyTimes="0;1" keySplines="0.2 0 0.8 1" calcMode="spline" begin="0s" style="animation-play-state: running; animation-delay: 0s;"></animate>
        </circle>
        <circle cx="1286.8" cy="2403.1" r="25" fill="none" stroke="#003c8d" stroke-width="7" style="animation-play-state: running; animation-delay: 0s;">
            <animate attributeName="r" repeatCount="indefinite" dur="0.9615384615384615s" values="0;30" keyTimes="0;1" keySplines="0 0.2 0.8 1" calcMode="spline" begin="-0.4807692307692307s" style="animation-play-state: running; animation-delay: 0s;"></animate>
            <animate attributeName="opacity" repeatCount="indefinite" dur="0.9615384615384615s" values="3;0" keyTimes="0;1" keySplines="0.2 0 0.8 1" calcMode="spline" begin="-0.4807692307692307s" style="animation-play-state: running; animation-delay: 0s;"></animate>
        </circle>

        <circle cx="1332.4" cy="2296.1" r="25" fill="none" stroke="#fa000e" stroke-width="7" style="animation-play-state: running; animation-delay: 0s;">
            <animate attributeName="r" repeatCount="indefinite" dur="0.9615384615384615s" values="0;30" keyTimes="0;1" keySplines="0 0.2 0.8 1" calcMode="spline" begin="0s" style="animation-play-state: running; animation-delay: 0s;"></animate>
            <animate attributeName="opacity" repeatCount="indefinite" dur="0.9615384615384615s" values="3;0" keyTimes="0;1" keySplines="0.2 0 0.8 1" calcMode="spline" begin="0s" style="animation-play-state: running; animation-delay: 0s;"></animate>
        </circle>
        <circle cx="1332.4" cy="2296.1" r="25" fill="none" stroke="#003c8d" stroke-width="7" style="animation-play-state: running; animation-delay: 0s;">
            <animate attributeName="r" repeatCount="indefinite" dur="0.9615384615384615s" values="0;30" keyTimes="0;1" keySplines="0 0.2 0.8 1" calcMode="spline" begin="-0.4807692307692307s" style="animation-play-state: running; animation-delay: 0s;"></animate>
            <animate attributeName="opacity" repeatCount="indefinite" dur="0.9615384615384615s" values="3;0" keyTimes="0;1" keySplines="0.2 0 0.8 1" calcMode="spline" begin="-0.4807692307692307s" style="animation-play-state: running; animation-delay: 0s;"></animate>
        </circle>

        <circle cx="1410.3" cy="2162.5" r="25" fill="none" stroke="#fa000e" stroke-width="7" style="animation-play-state: running; animation-delay: 0s;">
            <animate attributeName="r" repeatCount="indefinite" dur="0.9615384615384615s" values="0;30" keyTimes="0;1" keySplines="0 0.2 0.8 1" calcMode="spline" begin="0s" style="animation-play-state: running; animation-delay: 0s;"></animate>
            <animate attributeName="opacity" repeatCount="indefinite" dur="0.9615384615384615s" values="3;0" keyTimes="0;1" keySplines="0.2 0 0.8 1" calcMode="spline" begin="0s" style="animation-play-state: running; animation-delay: 0s;"></animate>
        </circle>
        <circle cx="1410.3" cy="2162.5" r="25" fill="none" stroke="#003c8d" stroke-width="7" style="animation-play-state: running; animation-delay: 0s;">
            <animate attributeName="r" repeatCount="indefinite" dur="0.9615384615384615s" values="0;30" keyTimes="0;1" keySplines="0 0.2 0.8 1" calcMode="spline" begin="-0.4807692307692307s" style="animation-play-state: running; animation-delay: 0s;"></animate>
            <animate attributeName="opacity" repeatCount="indefinite" dur="0.9615384615384615s" values="3;0" keyTimes="0;1" keySplines="0.2 0 0.8 1" calcMode="spline" begin="-0.4807692307692307s" style="animation-play-state: running; animation-delay: 0s;"></animate>
        </circle>

        <circle cx="1518.8" cy="1822.8" r="25" fill="none" stroke="#fa000e" stroke-width="7" style="animation-play-state: running; animation-delay: 0s;">
            <animate attributeName="r" repeatCount="indefinite" dur="0.9615384615384615s" values="0;30" keyTimes="0;1" keySplines="0 0.2 0.8 1" calcMode="spline" begin="0s" style="animation-play-state: running; animation-delay: 0s;"></animate>
            <animate attributeName="opacity" repeatCount="indefinite" dur="0.9615384615384615s" values="3;0" keyTimes="0;1" keySplines="0.2 0 0.8 1" calcMode="spline" begin="0s" style="animation-play-state: running; animation-delay: 0s;"></animate>
        </circle>
        <circle cx="1518.8" cy="1822.8" r="25" fill="none" stroke="#003c8d" stroke-width="7" style="animation-play-state: running; animation-delay: 0s;">
            <animate attributeName="r" repeatCount="indefinite" dur="0.9615384615384615s" values="0;30" keyTimes="0;1" keySplines="0 0.2 0.8 1" calcMode="spline" begin="-0.4807692307692307s" style="animation-play-state: running; animation-delay: 0s;"></animate>
            <animate attributeName="opacity" repeatCount="indefinite" dur="0.9615384615384615s" values="3;0" keyTimes="0;1" keySplines="0.2 0 0.8 1" calcMode="spline" begin="-0.4807692307692307s" style="animation-play-state: running; animation-delay: 0s;"></animate>
        </circle>

        <circle cx="1539.2" cy="1774.5" r="25" fill="none" stroke="#fa000e" stroke-width="7" style="animation-play-state: running; animation-delay: 0s;">
            <animate attributeName="r" repeatCount="indefinite" dur="0.9615384615384615s" values="0;30" keyTimes="0;1" keySplines="0 0.2 0.8 1" calcMode="spline" begin="0s" style="animation-play-state: running; animation-delay: 0s;"></animate>
            <animate attributeName="opacity" repeatCount="indefinite" dur="0.9615384615384615s" values="3;0" keyTimes="0;1" keySplines="0.2 0 0.8 1" calcMode="spline" begin="0s" style="animation-play-state: running; animation-delay: 0s;"></animate>
        </circle>
        <circle cx="1539.2" cy="1774.5" r="25" fill="none" stroke="#003c8d" stroke-width="7" style="animation-play-state: running; animation-delay: 0s;">
            <animate attributeName="r" repeatCount="indefinite" dur="0.9615384615384615s" values="0;30" keyTimes="0;1" keySplines="0 0.2 0.8 1" calcMode="spline" begin="-0.4807692307692307s" style="animation-play-state: running; animation-delay: 0s;"></animate>
            <animate attributeName="opacity" repeatCount="indefinite" dur="0.9615384615384615s" values="3;0" keyTimes="0;1" keySplines="0.2 0 0.8 1" calcMode="spline" begin="-0.4807692307692307s" style="animation-play-state: running; animation-delay: 0s;"></animate>
        </circle>

        <circle cx="1676.9" cy="1471.3" r="25" fill="none" stroke="#fa000e" stroke-width="7" style="animation-play-state: running; animation-delay: 0s;">
            <animate attributeName="r" repeatCount="indefinite" dur="0.9615384615384615s" values="0;30" keyTimes="0;1" keySplines="0 0.2 0.8 1" calcMode="spline" begin="0s" style="animation-play-state: running; animation-delay: 0s;"></animate>
            <animate attributeName="opacity" repeatCount="indefinite" dur="0.9615384615384615s" values="3;0" keyTimes="0;1" keySplines="0.2 0 0.8 1" calcMode="spline" begin="0s" style="animation-play-state: running; animation-delay: 0s;"></animate>
        </circle>
        <circle cx="1676.9" cy="1471.3" r="25" fill="none" stroke="#003c8d" stroke-width="7" style="animation-play-state: running; animation-delay: 0s;">
            <animate attributeName="r" repeatCount="indefinite" dur="0.9615384615384615s" values="0;30" keyTimes="0;1" keySplines="0 0.2 0.8 1" calcMode="spline" begin="-0.4807692307692307s" style="animation-play-state: running; animation-delay: 0s;"></animate>
            <animate attributeName="opacity" repeatCount="indefinite" dur="0.9615384615384615s" values="3;0" keyTimes="0;1" keySplines="0.2 0 0.8 1" calcMode="spline" begin="-0.4807692307692307s" style="animation-play-state: running; animation-delay: 0s;"></animate>
        </circle>

        <circle cx="1916.7" cy="997.7" r="25" fill="none" stroke="#fa000e" stroke-width="7" style="animation-play-state: running; animation-delay: 0s;">
            <animate attributeName="r" repeatCount="indefinite" dur="0.9615384615384615s" values="0;30" keyTimes="0;1" keySplines="0 0.2 0.8 1" calcMode="spline" begin="0s" style="animation-play-state: running; animation-delay: 0s;"></animate>
            <animate attributeName="opacity" repeatCount="indefinite" dur="0.9615384615384615s" values="3;0" keyTimes="0;1" keySplines="0.2 0 0.8 1" calcMode="spline" begin="0s" style="animation-play-state: running; animation-delay: 0s;"></animate>
        </circle>
        <circle cx="1916.7" cy="997.7" r="25" fill="none" stroke="#003c8d" stroke-width="7" style="animation-play-state: running; animation-delay: 0s;">
            <animate attributeName="r" repeatCount="indefinite" dur="0.9615384615384615s" values="0;30" keyTimes="0;1" keySplines="0 0.2 0.8 1" calcMode="spline" begin="-0.4807692307692307s" style="animation-play-state: running; animation-delay: 0s;"></animate>
            <animate attributeName="opacity" repeatCount="indefinite" dur="0.9615384615384615s" values="3;0" keyTimes="0;1" keySplines="0.2 0 0.8 1" calcMode="spline" begin="-0.4807692307692307s" style="animation-play-state: running; animation-delay: 0s;"></animate>
        </circle>

        <circle cx="1974.7" cy="769.3" r="25" fill="none" stroke="#fa000e" stroke-width="7" style="animation-play-state: running; animation-delay: 0s;">
            <animate attributeName="r" repeatCount="indefinite" dur="0.9615384615384615s" values="0;30" keyTimes="0;1" keySplines="0 0.2 0.8 1" calcMode="spline" begin="0s" style="animation-play-state: running; animation-delay: 0s;"></animate>
            <animate attributeName="opacity" repeatCount="indefinite" dur="0.9615384615384615s" values="3;0" keyTimes="0;1" keySplines="0.2 0 0.8 1" calcMode="spline" begin="0s" style="animation-play-state: running; animation-delay: 0s;"></animate>
        </circle>
        <circle cx="1974.7" cy="769.3" r="25" fill="none" stroke="#003c8d" stroke-width="7" style="animation-play-state: running; animation-delay: 0s;">
            <animate attributeName="r" repeatCount="indefinite" dur="0.9615384615384615s" values="0;30" keyTimes="0;1" keySplines="0 0.2 0.8 1" calcMode="spline" begin="-0.4807692307692307s" style="animation-play-state: running; animation-delay: 0s;"></animate>
            <animate attributeName="opacity" repeatCount="indefinite" dur="0.9615384615384615s" values="3;0" keyTimes="0;1" keySplines="0.2 0 0.8 1" calcMode="spline" begin="-0.4807692307692307s" style="animation-play-state: running; animation-delay: 0s;"></animate>
        </circle>

        <circle cx="2097.1" cy="590.1" r="25" fill="none" stroke="#fa000e" stroke-width="7" style="animation-play-state: running; animation-delay: 0s;">
            <animate attributeName="r" repeatCount="indefinite" dur="0.9615384615384615s" values="0;30" keyTimes="0;1" keySplines="0 0.2 0.8 1" calcMode="spline" begin="0s" style="animation-play-state: running; animation-delay: 0s;"></animate>
            <animate attributeName="opacity" repeatCount="indefinite" dur="0.9615384615384615s" values="3;0" keyTimes="0;1" keySplines="0.2 0 0.8 1" calcMode="spline" begin="0s" style="animation-play-state: running; animation-delay: 0s;"></animate>
        </circle>
        <circle cx="2097.1" cy="590.1" r="25" fill="none" stroke="#003c8d" stroke-width="7" style="animation-play-state: running; animation-delay: 0s;">
            <animate attributeName="r" repeatCount="indefinite" dur="0.9615384615384615s" values="0;30" keyTimes="0;1" keySplines="0 0.2 0.8 1" calcMode="spline" begin="-0.4807692307692307s" style="animation-play-state: running; animation-delay: 0s;"></animate>
            <animate attributeName="opacity" repeatCount="indefinite" dur="0.9615384615384615s" values="3;0" keyTimes="0;1" keySplines="0.2 0 0.8 1" calcMode="spline" begin="-0.4807692307692307s" style="animation-play-state: running; animation-delay: 0s;"></animate>
        </circle>

        <circle cx="2081.1" cy="414.3" r="25" fill="none" stroke="#fa000e" stroke-width="7" style="animation-play-state: running; animation-delay: 0s;">
            <animate attributeName="r" repeatCount="indefinite" dur="0.9615384615384615s" values="0;30" keyTimes="0;1" keySplines="0 0.2 0.8 1" calcMode="spline" begin="0s" style="animation-play-state: running; animation-delay: 0s;"></animate>
            <animate attributeName="opacity" repeatCount="indefinite" dur="0.9615384615384615s" values="3;0" keyTimes="0;1" keySplines="0.2 0 0.8 1" calcMode="spline" begin="0s" style="animation-play-state: running; animation-delay: 0s;"></animate>
        </circle>
        <circle cx="2081.1" cy="414.3" r="25" fill="none" stroke="#003c8d" stroke-width="7" style="animation-play-state: running; animation-delay: 0s;">
            <animate attributeName="r" repeatCount="indefinite" dur="0.9615384615384615s" values="0;30" keyTimes="0;1" keySplines="0 0.2 0.8 1" calcMode="spline" begin="-0.4807692307692307s" style="animation-play-state: running; animation-delay: 0s;"></animate>
            <animate attributeName="opacity" repeatCount="indefinite" dur="0.9615384615384615s" values="3;0" keyTimes="0;1" keySplines="0.2 0 0.8 1" calcMode="spline" begin="-0.4807692307692307s" style="animation-play-state: running; animation-delay: 0s;"></animate>
        </circle>
    </g>
</svg>